<svg width="42" height="40" viewBox="0 0 42 40" fill="none" xmlns="http://www.w3.org/2000/svg">
<path d="M17.0104 24.9842C14.7258 21.1554 14.7204 17.175 14.9526 15.3229C9.60016 17.8303 6.39732 23.2134 8.55235 28.0386C11.0909 28.2877 14.6502 27.5296 17.0104 24.9842Z" fill="#415167"/>
<path d="M17.5991 25.9103C15.5143 28.0873 11.9334 29.3167 9.20047 29.1542C11.6958 32.7014 18.3337 34.2611 24.3127 30.8384C21.7526 30.2265 19.3383 28.4393 17.5991 25.9103Z" fill="#415167"/>
<path d="M23.8536 17.9603C20.2781 14.0611 19.981 10.3406 20.4725 7.89819C16.7782 9.98319 14.9742 15.3284 16.4217 20.7764C18.0366 27.0043 23.778 31.7159 29.1628 29.3438C29.3303 27.5946 29.1088 23.6683 23.8536 17.9603Z" fill="#415167"/>
<path d="M33.8024 16.1894C32.1604 9.98314 26.6784 5.69401 21.6878 7.35117C20.9586 9.68528 21.0612 13.4383 24.6692 17.2617C26.3057 19.1571 30.3511 23.6466 30.2755 28.7318C33.5917 26.4356 35.1418 21.3667 33.8024 16.1894Z" fill="#415167"/>
</svg>
