<svg width="42" height="40" viewBox="0 0 42 40" fill="none" xmlns="http://www.w3.org/2000/svg">
<path d="M20.2587 7.39404C20.0957 7.11733 19.7428 6.98246 19.4727 6.95483C19.1494 6.96003 18.8549 7.13811 18.7016 7.4209L15.5409 13.2455L17.1985 15.1161L18.7311 12.683C19.057 12.1659 19.9179 12.1659 20.2438 12.683L21.7765 15.1161L23.5762 13.0375L20.2587 7.39404Z" fill="#415167"/>
<path d="M25.0642 15.5962L24.5395 14.7021L22.425 17.2304C22.2506 17.4679 21.9977 17.623 21.6716 17.5927C21.3759 17.5823 21.1047 17.4262 20.9477 17.1767L19.4722 14.8305L17.9966 17.1767C17.8397 17.4263 17.5685 17.5823 17.2728 17.5927C17.2615 17.5936 17.2501 17.5936 17.2397 17.5936C16.9554 17.5936 16.6877 17.4592 16.5193 17.2304L14.5946 14.9614L6.12386 30.4857C5.97562 30.7604 5.98259 31.0933 6.14392 31.361C6.30526 31.6297 6.59656 31.7935 6.91048 31.7935H16.9666C16.7102 31.0756 16.7552 30.2742 17.1393 29.5982L25.0642 15.5962Z" fill="#415167"/>
<path d="M28.3156 16.3034C27.9986 15.7454 27.07 15.7454 26.7529 16.3034L24.8856 19.5865L27.5343 22.4494L30.1829 19.5865L28.3156 16.3034Z" fill="#415167"/>
<path d="M36.3769 30.4724L31.0688 21.2075L28.1907 24.383C28.0207 24.5847 27.7696 24.7016 27.5045 24.7016C27.2395 24.7016 26.9884 24.5847 26.8184 24.383L23.9402 21.2075L18.6916 30.4725C18.5356 30.7469 18.5382 31.0828 18.6986 31.3547C18.859 31.6265 19.1519 31.7935 19.4693 31.7935H35.5992C35.9165 31.7935 36.2095 31.6265 36.3699 31.3546C36.5303 31.0827 36.5329 30.7469 36.3769 30.4724Z" fill="#415167"/>
</svg>
